<svg id="Layer_1" data-name="Layer 1" xmlns="http://www.w3.org/2000/svg" viewBox="0 0 123.87 123.87"><defs><style>.cls-1{fill:#212529;}</style></defs><title>earthquake-2-dark</title><polygon class="cls-1" points="76.3 31.6 66.6 30.7 65.4 43.1 75.1 44 76.3 31.6"/><polygon class="cls-1" points="47.4 41.4 57.1 42.3 58.3 29.9 48.6 29 47.4 41.4"/><polygon class="cls-1" points="45.4 62 55.1 63 56.3 50.6 46.6 49.6 45.4 62"/><path class="cls-1" d="M74.3,108l-2-5.1H63.9l2.8-15.3H61.2l1.7-6.1,55.93,4.94A61.94,61.94,0,1,0,3.38,82.1H54.2L48.7,94.6h5.5l-3.8,12.5H19.58a61.89,61.89,0,0,0,81.27,3ZM50,77.9H36.8L42.1,24l-1.4-.1.7-6.9L59,18.7h.4A4.3,4.3,0,0,1,64,15a4.24,4.24,0,0,1,3.7,4.6l16.6,1.6,1.3.2-.7,6.9-1.4-.1-5,51.3L63.9,77.4l1.3-5H58.3l2.8-16.7Z"/><polygon class="cls-1" points="74.2 52.4 64.5 51.5 63.3 63.9 73 64.8 74.2 52.4"/></svg>