<?xml version="1.0" encoding="utf-8"?>
<!-- Generator: Adobe Illustrator 21.0.0, SVG Export Plug-In . SVG Version: 6.00 Build 0)  -->
<svg version="1.1" id="Layer_1" xmlns="http://www.w3.org/2000/svg" xmlns:xlink="http://www.w3.org/1999/xlink" x="0px" y="0px"
	 viewBox="0 0 123.9 123.7" style="enable-background:new 0 0 123.9 123.7;" xml:space="preserve">
<style type="text/css">
	.st0{fill:#FFFFFF;}
</style>
<g>
	<polygon class="st0" points="76.3,31.6 66.6,30.7 65.4,43.1 75.1,44 	"/>
	<polygon class="st0" points="47.4,41.4 57.1,42.3 58.3,29.9 48.6,29 	"/>
	<polygon class="st0" points="45.4,62 55.1,63 56.3,50.6 46.6,49.6 	"/>
	<path class="st0" d="M74.3,108l-2-5.1h-8.4l2.8-15.3h-5.5l1.7-6.1l55.9,4.9c3.2-7.5,5-15.8,5-24.5C123.9,27.7,96.1,0,61.9,0
		S0,27.7,0,61.9C0,69,1.2,75.8,3.4,82.1h50.8l-5.5,12.5h5.5l-3.8,12.5H19.6c11.1,10.4,26,16.8,42.4,16.8c14.7,0,28.3-5.2,38.9-13.8
		L74.3,108z M50,77.9H36.8L42.1,24l-1.4-0.1l0.7-6.9L59,18.7h0.4c0.3-2.2,2.3-3.9,4.6-3.7c2.2,0.2,3.9,2.3,3.7,4.6l16.6,1.6l1.3,0.2
		l-0.7,6.9l-1.4-0.1l-5,51.3l-14.6-2.1l1.3-5h-6.9l2.8-16.7L50,77.9z"/>
	<polygon class="st0" points="74.2,52.4 64.5,51.5 63.3,63.9 73,64.8 	"/>
</g>
</svg>
